<svg xmlns="http://www.w3.org/2000/svg" data-name="Layer 1" viewBox="0 0 100 125" x="0px" y="0px"><title>Food Icons</title><path d="M53.08,22.22a33.21,33.21,0,0,0-8,.23,9.44,9.44,0,0,1,1.53-4.52h12.1a3,3,0,1,0,0-6H28.13a3,3,0,0,0,0,6H39.91c-2.47,6.88.82,13.46,3.42,16.43a3,3,0,1,0,4.52-4,12.15,12.15,0,0,1-1.4-2.09A27,27,0,1,1,23.12,52.55a26.74,26.74,0,0,1,7.14-15.9,3,3,0,1,0-4.38-4.1A32.69,32.69,0,0,0,17.15,52,33,33,0,0,0,46.92,87.93q1.56.15,3.11.15a33,33,0,0,0,3.06-65.85Z"/><path d="M36.25,70.22a3.55,3.55,0,0,0,3.2,3.86l.34,0a3.55,3.55,0,1,0-3.54-3.88Z"/><path d="M44.07,63.54a3.54,3.54,0,0,0,3.52-3.21h0a3.55,3.55,0,1,0-6.26,1.94,3.51,3.51,0,0,0,2.4,1.26Z"/><path d="M55.68,65.33a3.55,3.55,0,0,0,3.52-3.22A3.55,3.55,0,1,0,53,64a3.51,3.51,0,0,0,2.39,1.26Z"/><path d="M49.19,72.53a3.54,3.54,0,0,0,3.2,3.86l.34,0a3.55,3.55,0,0,0,3.53-3.21h0a3.55,3.55,0,0,0-7.06-.67Z"/><path d="M28.58,58.54a3.55,3.55,0,0,0,3.2,3.86l.34,0a3.55,3.55,0,0,0,3.53-3.21h0a3.55,3.55,0,0,0-7.06-.66Z"/><path d="M36,43.73a3.54,3.54,0,1,0-.67,7.06l.34,0A3.55,3.55,0,0,0,36,43.73Z"/><text x="0" y="115" fill="#000000" font-size="5px" font-weight="bold" font-family="'Helvetica Neue', Helvetica, Arial-Unicode, Arial, Sans-serif">Created by Blair Adams</text><text x="0" y="120" fill="#000000" font-size="5px" font-weight="bold" font-family="'Helvetica Neue', Helvetica, Arial-Unicode, Arial, Sans-serif">from the Noun Project</text></svg>